<?xml version="1.0" encoding="UTF-8" standalone="no"?>
<svg viewBox="0 0 400 400" xmlns="http://www.w3.org/2000/svg">
    <!-- Background -->
    <rect x="0" y="0" width="400" height="400" fill="#7a7a7a"/>

    <!-- Grass areas -->
    <rect x="0" y="0" width="150" height="150" fill="#549c54"/>
    <rect x="250" y="0" width="150" height="150" fill="#549c54"/>
    <rect x="0" y="250" width="150" height="150" fill="#549c54"/>
    <rect x="250" y="250" width="150" height="150" fill="#549c54"/>

    <!-- Horizontal Road -->
    <rect x="0" y="150" width="400" height="100" fill="#333333"/>

    <!-- Vertical Road -->
    <rect x="150" y="0" width="100" height="400" fill="#333333"/>

    <!-- Intersection -->
    <rect x="150" y="150" width="100" height="100" fill="#444444"/>

    <!-- Road center lines (horizontal) -->
    <line x1="0" y1="200" x2="150" y2="200" stroke="#ffff00" stroke-width="4" stroke-dasharray="20,20"/>
    <line x1="250" y1="200" x2="400" y2="200" stroke="#ffff00" stroke-width="4" stroke-dasharray="20,20"/>

    <!-- Road center lines (vertical) -->
    <line x1="200" y1="0" x2="200" y2="150" stroke="#ffff00" stroke-width="4" stroke-dasharray="20,20"/>
    <line x1="200" y1="250" x2="200" y2="400" stroke="#ffff00" stroke-width="4" stroke-dasharray="20,20"/>

    <!-- Road edges -->
    <line x1="0" y1="150" x2="400" y2="150" stroke="#ffffff" stroke-width="2"/>
    <line x1="0" y1="250" x2="400" y2="250" stroke="#ffffff" stroke-width="2"/>
    <line x1="150" y1="0" x2="150" y2="400" stroke="#ffffff" stroke-width="2"/>
    <line x1="250" y1="0" x2="250" y2="400" stroke="#ffffff" stroke-width="2"/>

    <!-- Stopping lines -->
    <line x1="155" y1="150" x2="155" y2="250" stroke="#ffffff" stroke-width="5"/>
    <line x1="245" y1="150" x2="245" y2="250" stroke="#ffffff" stroke-width="5"/>
    <line x1="150" y1="155" x2="250" y2="155" stroke="#ffffff" stroke-width="5"/>
    <line x1="150" y1="245" x2="250" y2="245" stroke="#ffffff" stroke-width="5"/>
</svg>