<svg width="1024" height="768" xmlns="http://www.w3.org/2000/svg">
    <!-- Grass Background -->
    <rect width="100%" height="100%" fill="#287828"/>

    <!-- Road Asphalt -->
    <rect x="422" y="0" width="180" height="768" fill="#3C3C3C"/>
    <rect x="0" y="294" width="1024" height="180" fill="#3C3C3C"/>

    <!-- Center Dividers (Yellow) -->
    <rect x="510" y="0" width="4" height="294" fill="#FFFF00"/>
    <rect x="510" y="474" width="4" height="294" fill="#FFFF00"/>
    <rect x="0" y="382" width="422" height="4" fill="#FFFF00"/>
    <rect x="602" y="382" width="422" height="4" fill="#FFFF00"/>

    <!-- Lane Markings (White, Dashed) -->
    <defs>
        <path id="v_line" d="M0,0 v294" stroke="white" stroke-width="2" stroke-dasharray="15, 15"/>
        <path id="h_line" d="M0,0 h422" stroke="white" stroke-width="2" stroke-dasharray="15, 15"/>
    </defs>
    <use href="#v_line" x="452" y="0"/> <use href="#v_line" x="482" y="0"/>
    <use href="#v_line" x="452" y="474"/> <use href="#v_line" x="482" y="474"/>
    <use href="#v_line" x="542" y="0"/> <use href="#v_line" x="572" y="0"/>
    <use href="#v_line" x="542" y="474"/> <use href="#v_line" x="572" y="474"/>
    <use href="#h_line" x="0" y="324"/> <use href="#h_line" x="0" y="354"/>
    <use href="#h_line" x="602" y="324"/> <use href="#h_line" x="602" y="354"/>
    <use href="#h_line" x="0" y="412"/> <use href="#h_line" x="0" y="442"/>
    <use href="#h_line" x="602" y="412"/> <use href="#h_line" x="602" y="442"/>
</svg>